<?xml version="1.0" encoding="UTF-8"?>
<svg xmlns="http://www.w3.org/2000/svg" viewBox="0 0 600 1300" width="600" height="1300">
  <defs>
    <linearGradient id="bezel3" x1="0" y1="0" x2="0" y2="1">
      <stop offset="0%" stop-color="#1a1a1a"/>
      <stop offset="100%" stop-color="#000"/>
    </linearGradient>
  </defs>

  <rect width="600" height="1300" fill="#fafafa"/>

  <!-- Phone bezel -->
  <rect x="30" y="20" width="540" height="1260" rx="70" ry="70" fill="url(#bezel3)"/>
  <rect x="50" y="40" width="500" height="1220" rx="52" ry="52" fill="#f2f2f7"/>
  <rect x="230" y="55" width="140" height="34" rx="17" fill="#000"/>
  <text x="90" y="78" font-family="Helvetica" font-weight="600"
        font-size="18" fill="#000">20:14</text>
  <rect x="470" y="65" width="36" height="14" rx="3" fill="#000" opacity="0.6"/>

  <text x="300" y="150" font-family="Helvetica" font-weight="800"
        font-size="26" text-anchor="middle" fill="#000">Compare with Vitality</text>

  <!-- Week picker -->
  <rect x="70" y="190" width="460" height="80" rx="14" fill="#fff"/>
  <text x="110" y="225" font-family="Helvetica" font-size="22" fill="#007aff">&lt;</text>
  <text x="300" y="227" font-family="Helvetica" font-weight="700"
        font-size="18" text-anchor="middle" fill="#000">7 Apr - 13 Apr</text>
  <text x="300" y="253" font-family="Helvetica" font-size="13"
        text-anchor="middle" fill="#666">last week (recommended)</text>
  <text x="490" y="225" font-family="Helvetica" font-size="22" fill="#c7c7cc">&gt;</text>

  <!-- Week totals -->
  <text x="85" y="305" font-family="Helvetica" font-weight="600"
        font-size="14" fill="#666" letter-spacing="1">WEEK TOTALS</text>
  <rect x="70" y="320" width="460" height="96" rx="14" fill="#fff"/>
  <text x="100" y="350" font-family="Helvetica" font-size="13" fill="#666">Calculated</text>
  <text x="100" y="393" font-family="Helvetica" font-weight="700"
        font-size="28" fill="#000">32 pt</text>
  <text x="500" y="350" font-family="Helvetica" font-size="13"
        text-anchor="end" fill="#666">Reported (Vitality)</text>
  <text x="500" y="393" font-family="Helvetica" font-weight="700"
        font-size="28" text-anchor="end" fill="#ff9a1a">29 pt</text>

  <!-- Day by day -->
  <text x="85" y="450" font-family="Helvetica" font-weight="600"
        font-size="14" fill="#666" letter-spacing="1">DAY BY DAY</text>
  <g>
    <!-- Mon -->
    <rect x="70" y="465" width="460" height="56" rx="14" fill="#fff"/>
    <text x="100" y="492" font-family="Helvetica" font-weight="700" font-size="16" fill="#000">Mon 7 Apr</text>
    <text x="100" y="513" font-family="Helvetica" font-size="12" fill="#666">11,420 steps</text>
    <text x="420" y="500" font-family="Helvetica" font-weight="700" font-size="16" text-anchor="end" fill="#ffc61a">5 pt</text>
    <text x="435" y="500" font-family="Helvetica" font-size="14" fill="#8a8a8a">↔</text>
    <text x="500" y="500" font-family="Helvetica" font-weight="700" font-size="16" text-anchor="end" fill="#33e659">5 pt</text>

    <!-- Tue -->
    <rect x="70" y="527" width="460" height="56" rx="14" fill="#fff"/>
    <text x="100" y="554" font-family="Helvetica" font-weight="700" font-size="16" fill="#000">Tue 8 Apr</text>
    <text x="100" y="575" font-family="Helvetica" font-size="12" fill="#666">13,210 steps</text>
    <text x="420" y="562" font-family="Helvetica" font-weight="700" font-size="16" text-anchor="end" fill="#33e659">8 pt</text>
    <text x="435" y="562" font-family="Helvetica" font-size="14" fill="#8a8a8a">↔</text>
    <text x="500" y="562" font-family="Helvetica" font-weight="700" font-size="16" text-anchor="end" fill="#33e659">8 pt</text>

    <!-- Wed — mismatch -->
    <rect x="70" y="589" width="460" height="56" rx="14" fill="#fff"/>
    <text x="100" y="616" font-family="Helvetica" font-weight="700" font-size="16" fill="#000">Wed 9 Apr</text>
    <text x="100" y="637" font-family="Helvetica" font-size="12" fill="#666">8,900 steps</text>
    <text x="420" y="624" font-family="Helvetica" font-weight="700" font-size="16" text-anchor="end" fill="#ff9a1a">3 pt</text>
    <text x="435" y="624" font-family="Helvetica" font-size="14" fill="#8a8a8a">↔</text>
    <text x="500" y="624" font-family="Helvetica" font-weight="700" font-size="16" text-anchor="end" fill="#ff9a1a">0 pt</text>

    <!-- Thu -->
    <rect x="70" y="651" width="460" height="56" rx="14" fill="#fff"/>
    <text x="100" y="678" font-family="Helvetica" font-weight="700" font-size="16" fill="#000">Thu 10 Apr</text>
    <text x="100" y="699" font-family="Helvetica" font-size="12" fill="#666">6,420 steps</text>
    <text x="420" y="686" font-family="Helvetica" font-weight="700" font-size="16" text-anchor="end" fill="#ff4040">0 pt</text>
    <text x="435" y="686" font-family="Helvetica" font-size="14" fill="#8a8a8a">↔</text>
    <text x="500" y="686" font-family="Helvetica" font-weight="700" font-size="16" text-anchor="end" fill="#33e659">0 pt</text>

    <!-- Fri -->
    <rect x="70" y="713" width="460" height="56" rx="14" fill="#fff"/>
    <text x="100" y="740" font-family="Helvetica" font-weight="700" font-size="16" fill="#000">Fri 11 Apr</text>
    <text x="100" y="761" font-family="Helvetica" font-size="12" fill="#666">10,540 steps</text>
    <text x="420" y="748" font-family="Helvetica" font-weight="700" font-size="16" text-anchor="end" fill="#ffc61a">5 pt</text>
    <text x="435" y="748" font-family="Helvetica" font-size="14" fill="#8a8a8a">↔</text>
    <text x="500" y="748" font-family="Helvetica" font-weight="700" font-size="16" text-anchor="end" fill="#33e659">5 pt</text>

    <!-- Sat -->
    <rect x="70" y="775" width="460" height="56" rx="14" fill="#fff"/>
    <text x="100" y="802" font-family="Helvetica" font-weight="700" font-size="16" fill="#000">Sat 12 Apr</text>
    <text x="100" y="823" font-family="Helvetica" font-size="12" fill="#666">4,210 steps</text>
    <text x="420" y="810" font-family="Helvetica" font-weight="700" font-size="16" text-anchor="end" fill="#ff4040">0 pt</text>
    <text x="435" y="810" font-family="Helvetica" font-size="14" fill="#8a8a8a">↔</text>
    <text x="500" y="810" font-family="Helvetica" font-weight="700" font-size="16" text-anchor="end" fill="#33e659">0 pt</text>

    <!-- Sun -->
    <rect x="70" y="837" width="460" height="56" rx="14" fill="#fff"/>
    <text x="100" y="864" font-family="Helvetica" font-weight="700" font-size="16" fill="#000">Sun 13 Apr</text>
    <text x="100" y="885" font-family="Helvetica" font-size="12" fill="#666">12,640 steps</text>
    <text x="420" y="872" font-family="Helvetica" font-weight="700" font-size="16" text-anchor="end" fill="#33e659">8 pt</text>
    <text x="435" y="872" font-family="Helvetica" font-size="14" fill="#8a8a8a">↔</text>
    <text x="500" y="872" font-family="Helvetica" font-weight="700" font-size="16" text-anchor="end" fill="#ff9a1a">3 pt</text>
  </g>

  <!-- Pattern hint -->
  <text x="85" y="930" font-family="Helvetica" font-weight="600"
        font-size="14" fill="#666" letter-spacing="1">PATTERN</text>
  <rect x="70" y="945" width="460" height="90" rx="14" fill="#fff"/>
  <text x="100" y="978" font-family="Helvetica" font-size="14" fill="#000">Mismatches go in both</text>
  <text x="100" y="1001" font-family="Helvetica" font-size="14" fill="#000">directions. Likely cause: sync</text>
  <text x="100" y="1024" font-family="Helvetica" font-size="14" fill="#000">lag or timezone handling.</text>

  <!-- Tab bar -->
  <rect x="50" y="1190" width="500" height="70" rx="0" fill="#fff"/>
  <line x1="50" y1="1190" x2="550" y2="1190" stroke="#ececec" stroke-width="1"/>
  <g transform="translate(200, 1225)" opacity="0.5">
    <circle r="16" fill="none" stroke="#8a8a8a" stroke-width="2"/>
  </g>
  <text x="200" y="1255" font-family="Helvetica" font-size="13"
        text-anchor="middle" fill="#8a8a8a">Today</text>
  <g transform="translate(400, 1225)">
    <rect x="-14" y="-14" width="28" height="28" rx="3" fill="none" stroke="#ff4040" stroke-width="3"/>
    <line x1="-7" y1="-7" x2="7" y2="-7" stroke="#ff4040" stroke-width="2"/>
    <line x1="-7" y1="0" x2="7" y2="0" stroke="#ff4040" stroke-width="2"/>
    <line x1="-7" y1="7" x2="7" y2="7" stroke="#ff4040" stroke-width="2"/>
  </g>
  <text x="400" y="1255" font-family="Helvetica" font-weight="600"
        font-size="13" text-anchor="middle" fill="#ff4040">Compare</text>
</svg>
